<?xml version="1.0"?>
<svg xmlns="http://www.w3.org/2000/svg" xmlns:xlink="http://www.w3.org/1999/xlink" xmlns:svgjs="http://svgjs.com/svgjs" version="1.1" width="512" height="512" x="0" y="0" viewBox="0 0 74 74" style="enable-background:new 0 0 512 512" xml:space="preserve"><g><path xmlns="http://www.w3.org/2000/svg" d="m46 4.17a1.02 1.02 0 0 1 -.145-.01 14.938 14.938 0 0 0 -2.831-.141l-.055-1v-1c.21-.01.466-.02.71-.02a17.087 17.087 0 0 1 2.464.18 1 1 0 0 1 -.143 1.991z" fill="#ffffff" data-original="#000000" style=""/><path xmlns="http://www.w3.org/2000/svg" d="m60.42 44.14h-46.84a11.03 11.03 0 0 1 -.222-22.058 13.006 13.006 0 0 1 12.932-11.492 12.763 12.763 0 0 1 2.469.243 17.064 17.064 0 0 1 5.231-5.795 1 1 0 1 1 1.139 1.644 15.06 15.06 0 0 0 -4.941 5.738 1 1 0 0 1 -1.15.528 10.89 10.89 0 0 0 -2.748-.358 11.011 11.011 0 0 0 -11.011 10.535 1 1 0 0 1 -1 .955h-.7a9.03 9.03 0 0 0 0 18.06h46.841a9.03 9.03 0 0 0 0-18.06h-1.22a1 1 0 0 1 -.967-1.255 14.789 14.789 0 0 0 .5-3.765 14.272 14.272 0 0 0 -.261-2.766 1 1 0 0 1 1.963-.388 16.606 16.606 0 0 1 .017 6.174 11.03 11.03 0 0 1 -.029 22.06z" fill="#ffffff" data-original="#000000" style=""/><path xmlns="http://www.w3.org/2000/svg" d="m54.99 8.66a1 1 0 0 1 -.7-.288 15.776 15.776 0 0 0 -2.3-1.881 1 1 0 1 1 1.11-1.661 17.9 17.9 0 0 1 2.595 2.118 1 1 0 0 1 -.7 1.712z" fill="#ffffff" data-original="#000000" style=""/><path xmlns="http://www.w3.org/2000/svg" d="m51.618 54.668a1 1 0 0 1 -.966-1.264l.7-2.539a1 1 0 1 1 1.929.527l-.694 2.539a1 1 0 0 1 -.969.737z" fill="#ffffff" data-original="#000000" style=""/><path xmlns="http://www.w3.org/2000/svg" d="m49.247 63.334a1 1 0 0 1 -.966-1.264l.7-2.539a1 1 0 0 1 1.929.528l-.699 2.541a1 1 0 0 1 -.964.734z" fill="#ffffff" data-original="#000000" style=""/><path xmlns="http://www.w3.org/2000/svg" d="m46.876 72a.967.967 0 0 1 -.265-.036 1 1 0 0 1 -.7-1.228l.689-2.536a1 1 0 0 1 1.93.528l-.694 2.539a1 1 0 0 1 -.96.733z" fill="#ffffff" data-original="#000000" style=""/><path xmlns="http://www.w3.org/2000/svg" d="m40.822 54.668a1 1 0 0 1 -.966-1.265l.7-2.539a1 1 0 0 1 1.929.529l-.7 2.539a1 1 0 0 1 -.963.736z" fill="#ffffff" data-original="#000000" style=""/><path xmlns="http://www.w3.org/2000/svg" d="m38.452 63.334a1 1 0 0 1 -.966-1.264l.7-2.539a1 1 0 0 1 1.929.528l-.699 2.541a1 1 0 0 1 -.964.734z" fill="#ffffff" data-original="#000000" style=""/><path xmlns="http://www.w3.org/2000/svg" d="m36.081 72a.967.967 0 0 1 -.265-.036 1 1 0 0 1 -.7-1.228l.7-2.539a1 1 0 0 1 1.929.528l-.694 2.539a1 1 0 0 1 -.97.736z" fill="#ffffff" data-original="#000000" style=""/><path xmlns="http://www.w3.org/2000/svg" d="m30.027 54.668a1 1 0 0 1 -.965-1.265l.7-2.539a1 1 0 0 1 1.93.529l-.7 2.539a1 1 0 0 1 -.965.736z" fill="#ffffff" data-original="#000000" style=""/><path xmlns="http://www.w3.org/2000/svg" d="m27.657 63.334a1 1 0 0 1 -.966-1.264l.7-2.539a1 1 0 0 1 1.929.528l-.699 2.541a1 1 0 0 1 -.964.734z" fill="#ffffff" data-original="#000000" style=""/><path xmlns="http://www.w3.org/2000/svg" d="m25.286 72a.967.967 0 0 1 -.265-.036 1 1 0 0 1 -.7-1.228l.7-2.539a1 1 0 0 1 1.929.528l-.694 2.539a1 1 0 0 1 -.97.736z" fill="#ffffff" data-original="#000000" style=""/><path xmlns="http://www.w3.org/2000/svg" d="m19.232 54.668a1 1 0 0 1 -.965-1.264l.694-2.539a1 1 0 0 1 1.93.527l-.691 2.539a1 1 0 0 1 -.968.737z" fill="#ffffff" data-original="#000000" style=""/><path xmlns="http://www.w3.org/2000/svg" d="m16.861 63.334a1.012 1.012 0 0 1 -.261-.034 1 1 0 0 1 -.7-1.229l.7-2.538a1 1 0 0 1 1.93.528l-.7 2.539a1 1 0 0 1 -.969.734z" fill="#ffffff" data-original="#000000" style=""/><path xmlns="http://www.w3.org/2000/svg" d="m14.491 72a.955.955 0 0 1 -.264-.036 1 1 0 0 1 -.7-1.228l.7-2.539a1 1 0 0 1 1.929.528l-.694 2.539a1 1 0 0 1 -.971.736z" fill="#ffffff" data-original="#000000" style=""/></g></svg>
