<?xml version="1.0"?>
<svg xmlns="http://www.w3.org/2000/svg" xmlns:xlink="http://www.w3.org/1999/xlink" xmlns:svgjs="http://svgjs.com/svgjs" version="1.1" width="512" height="512" x="0" y="0" viewBox="0 0 256 256" style="enable-background:new 0 0 512 512" xml:space="preserve" class=""><g><circle xmlns="http://www.w3.org/2000/svg" cx="125.293" cy="128" fill="#ffffff" r="71.25" data-original="#ffea92" style="" class=""/><path xmlns="http://www.w3.org/2000/svg" d="m125.293 38.476c-3.303 0-5.98-2.677-5.98-5.98v-18.039c0-3.303 2.677-5.98 5.98-5.98 3.303 0 5.98 2.677 5.98 5.98v18.039c0 3.303-2.678 5.98-5.98 5.98z" fill="#ffffff" data-original="#ffea92" style="" class=""/><path xmlns="http://www.w3.org/2000/svg" d="m125.293 247.524c-3.303 0-5.98-2.677-5.98-5.98v-18.039c0-3.303 2.677-5.98 5.98-5.98 3.303 0 5.98 2.677 5.98 5.98v18.039c0 3.302-2.678 5.98-5.98 5.98z" fill="#ffffff" data-original="#ffea92" style="" class=""/><path xmlns="http://www.w3.org/2000/svg" d="m214.816 128c0-3.303 2.677-5.98 5.98-5.98h18.039c3.303 0 5.98 2.677 5.98 5.98 0 3.303-2.677 5.98-5.98 5.98h-18.039c-3.302 0-5.98-2.677-5.98-5.98z" fill="#ffffff" data-original="#ffea92" style="" class=""/><path xmlns="http://www.w3.org/2000/svg" d="m188.595 191.303c2.335-2.335 6.122-2.335 8.457 0l12.756 12.756c2.335 2.335 2.335 6.122 0 8.457-2.335 2.335-6.122 2.335-8.457 0l-12.756-12.756c-2.335-2.335-2.335-6.122 0-8.457z" fill="#ffffff" data-original="#ffea92" style="" class=""/><path xmlns="http://www.w3.org/2000/svg" d="m209.809 43.484c2.335 2.335 2.335 6.122 0 8.457l-12.756 12.756c-2.335 2.335-6.122 2.335-8.457 0-2.335-2.335-2.335-6.122 0-8.457l12.756-12.756c2.335-2.336 6.121-2.336 8.457 0z" fill="#ffffff" data-original="#ffea92" style="" class=""/><g xmlns="http://www.w3.org/2000/svg" fill="#3762cc"><path d="m125.292 201.25c-40.39 0-73.25-32.859-73.25-73.25s32.86-73.25 73.25-73.25 73.25 32.859 73.25 73.25-32.859 73.25-73.25 73.25zm0-142.5c-38.185 0-69.25 31.065-69.25 69.25s31.065 69.25 69.25 69.25 69.25-31.065 69.25-69.25-31.064-69.25-69.25-69.25z" fill="#edeaea" data-original="#3762cc" style="" class=""/><path d="m125.292 40.477c-4.4 0-7.98-3.58-7.98-7.98v-18.04c0-4.399 3.58-7.979 7.98-7.979s7.98 3.58 7.98 7.979v18.04c0 4.399-3.58 7.98-7.98 7.98zm0-30c-2.195 0-3.98 1.785-3.98 3.979v18.04c0 2.195 1.786 3.98 3.98 3.98s3.98-1.785 3.98-3.98v-18.04c0-2.194-1.785-3.979-3.98-3.979z" fill="#edeaea" data-original="#3762cc" style="" class=""/><path d="m125.292 249.523c-4.4 0-7.98-3.58-7.98-7.979v-18.04c0-4.4 3.58-7.98 7.98-7.98s7.98 3.58 7.98 7.98v18.04c0 4.399-3.58 7.979-7.98 7.979zm0-30c-2.195 0-3.98 1.785-3.98 3.98v18.04c0 2.194 1.786 3.979 3.98 3.979s3.98-1.785 3.98-3.979v-18.04c0-2.194-1.785-3.98-3.98-3.98z" fill="#edeaea" data-original="#3762cc" style="" class=""/><path d="m238.836 135.98h-18.039c-4.4 0-7.98-3.58-7.98-7.98s3.58-7.98 7.98-7.98h18.039c4.4 0 7.98 3.58 7.98 7.98s-3.58 7.98-7.98 7.98zm-18.039-11.96c-2.195 0-3.98 1.785-3.98 3.98s1.785 3.98 3.98 3.98h18.039c2.195 0 3.98-1.785 3.98-3.98s-1.785-3.98-3.98-3.98z" fill="#edeaea" data-original="#3762cc" style="" class=""/><path d="m205.58 216.268c-2.132 0-4.136-.83-5.643-2.338l-12.756-12.755c-3.112-3.111-3.112-8.175 0-11.286 3.111-3.111 8.174-3.111 11.285 0l12.756 12.756c1.508 1.508 2.338 3.512 2.338 5.643 0 2.132-.83 4.136-2.338 5.643-1.507 1.507-3.511 2.337-5.642 2.337zm-12.756-24.716c-1.063 0-2.063.414-2.814 1.165-1.552 1.552-1.552 4.078 0 5.63l12.756 12.755c.752.752 1.751 1.166 2.814 1.166s2.063-.414 2.814-1.166 1.166-1.751 1.166-2.814-.414-2.063-1.166-2.814l-12.756-12.756c-.751-.752-1.75-1.166-2.814-1.166z" fill="#edeaea" data-original="#3762cc" style="" class=""/><path d="m45.005 216.268c-2.131 0-4.136-.83-5.643-2.338-1.507-1.507-2.337-3.511-2.337-5.643 0-2.131.83-4.135 2.337-5.643l12.756-12.756c3.111-3.111 8.174-3.111 11.286 0 3.111 3.111 3.111 8.175 0 11.286l-12.756 12.756c-1.507 1.508-3.511 2.338-5.643 2.338zm12.756-24.714c-1.02 0-2.039.388-2.815 1.163l-12.756 12.756c-.751.752-1.166 1.752-1.166 2.814 0 1.063.414 2.063 1.166 2.814 1.504 1.504 4.126 1.504 5.629 0l12.756-12.755c1.551-1.552 1.551-4.077 0-5.63-.776-.775-1.795-1.162-2.814-1.162z" fill="#edeaea" data-original="#3762cc" style="" class=""/><path d="m192.824 68.445c-2.044 0-4.087-.778-5.643-2.334-3.112-3.111-3.112-8.175 0-11.286l12.756-12.755c1.507-1.508 3.511-2.338 5.643-2.338 2.131 0 4.135.83 5.643 2.338 1.508 1.507 2.338 3.511 2.338 5.643 0 2.131-.83 4.135-2.338 5.643l-12.756 12.756c-1.556 1.555-3.599 2.333-5.643 2.333zm12.756-24.713c-1.063 0-2.063.414-2.814 1.166l-12.756 12.755c-1.552 1.552-1.552 4.078 0 5.63 1.504 1.502 4.125 1.502 5.629 0l12.756-12.756c.752-.752 1.166-1.752 1.166-2.814 0-1.063-.414-2.063-1.166-2.814-.752-.753-1.752-1.167-2.815-1.167z" fill="#edeaea" data-original="#3762cc" style="" class=""/></g><path xmlns="http://www.w3.org/2000/svg" d="m93.361 248h-62.585c-10.82 0-19.592-8.772-19.592-19.592v-200.816c0-10.82 8.771-19.592 19.592-19.592h62.585c10.82 0 19.592 8.772 19.592 19.592v200.816c-.001 10.82-8.772 19.592-19.592 19.592z" fill="#ffffff" data-original="#e0ebfc" style="" class=""/><path xmlns="http://www.w3.org/2000/svg" d="m24.245 27.592v36.291h75.646v-36.291c0-3.601-2.929-6.531-6.531-6.531h-62.584c-3.602 0-6.531 2.93-6.531 6.531z" fill="#a2a0a0" data-original="#f9a7a7" style="" class=""/><path xmlns="http://www.w3.org/2000/svg" d="m24.245 63.883h75.646v42.822h-75.646z" fill="#ffffff" data-original="#ffea92" style="" class=""/><path xmlns="http://www.w3.org/2000/svg" d="m24.245 106.705h75.646v42.822h-75.646z" fill="#a2a0a0" data-original="#6bdddd" style="" class=""/><path xmlns="http://www.w3.org/2000/svg" d="m24.245 149.411h75.646v42.822h-75.646z" fill="#ffffff" data-original="#a4c9ff" style="" class=""/><path xmlns="http://www.w3.org/2000/svg" d="m99.891 228.408v-36.291h-75.646v36.291c0 3.601 2.929 6.531 6.531 6.531h62.585c3.601 0 6.53-2.93 6.53-6.531z" fill="#a2a0a0" data-original="#4671c6" style="" class=""/><path xmlns="http://www.w3.org/2000/svg" d="m93.36 236.938h-62.585c-4.704 0-8.53-3.827-8.53-8.53v-200.816c0-4.703 3.827-8.53 8.53-8.53h62.585c4.704 0 8.531 3.827 8.531 8.53v200.816c0 4.703-3.827 8.53-8.531 8.53zm-62.585-213.876c-2.498 0-4.53 2.032-4.53 4.53v200.816c0 2.498 2.032 4.53 4.53 4.53h62.585c2.498 0 4.531-2.032 4.531-4.53v-200.816c0-2.498-2.033-4.53-4.531-4.53z" fill="#edeaea" data-original="#3762cc" style="" class=""/><path xmlns="http://www.w3.org/2000/svg" d="m143.268 113.093c-2.516 0-4.556 2.04-4.556 4.556v17.559c0 3.541-1.635 5.19-5.145 5.19-3.479 0-5.1-1.649-5.1-5.19v-17.559c0-2.516-2.04-4.556-4.556-4.556h-.102c-2.516 0-4.556 2.04-4.556 4.556v17.468c0 8.42 5.601 13.86 14.268 13.86 7.169 0 14.404-4.286 14.404-13.86v-17.468c0-2.516-2.04-4.556-4.556-4.556z" fill="#a2a0a0" data-original="#f9a7a7" style="" class=""/><path xmlns="http://www.w3.org/2000/svg" d="m176.356 116.113-5.757 16.076c-.377 1.052-1.865 1.051-2.24-.002l-5.727-16.068c-.647-1.815-2.365-3.026-4.291-3.026h-.082c-3.184 0-5.386 3.183-4.263 6.163l9.973 26.455c.669 1.774 2.367 2.949 4.263 2.949h2.479c1.898 0 3.598-1.177 4.265-2.954l9.935-26.455c1.119-2.979-1.083-6.158-4.265-6.158-1.925 0-3.641 1.208-4.29 3.02z" fill="#a2a0a0" data-original="#f9a7a7" style="" class=""/><path xmlns="http://www.w3.org/2000/svg" d="m11.184 115.511v25.21c0 1.951 2.081 3.196 3.8 2.274l23.501-12.605c1.814-.973 1.814-3.575 0-4.548l-23.501-12.605c-1.719-.922-3.8.323-3.8 2.274z" fill="#a2a0a0" data-original="#f9a7a7" style="" class=""/><path xmlns="http://www.w3.org/2000/svg" d="m93.36 250h-62.585c-11.906 0-21.592-9.687-21.592-21.592v-200.816c.001-11.905 9.687-21.592 21.592-21.592h62.585c11.906 0 21.592 9.687 21.592 21.592v200.816c0 11.905-9.686 21.592-21.592 21.592zm-62.585-240c-9.7 0-17.592 7.892-17.592 17.592v200.816c0 9.7 7.892 17.592 17.592 17.592h62.585c9.7 0 17.592-7.892 17.592-17.592v-200.816c0-9.7-7.892-17.592-17.592-17.592z" fill="#edeaea" data-original="#3762cc" style="" class=""/></g></svg>
